<svg width="72" height="72" viewBox="0 0 72 72" fill="none" xmlns="http://www.w3.org/2000/svg">
<rect x="0.5" y="0.5" width="71" height="71" rx="11.5" fill="url(#paint0_linear_12_20)" stroke="#424242"/>
<g clip-path="url(#clip0_12_20)">
<path d="M52.202 44.844L44.3439 36.9859H44.3082C41.2364 40.0577 36.2357 40.0577 33.1639 36.9859H33.1282L28.4848 41.6293C28.199 41.9151 27.8597 42.0937 27.5025 42.183C26.806 42.3616 25.7523 41.9151 25.1986 41.3614L23.1984 39.3612C21.091 37.2538 21.091 33.8605 23.1984 31.7531L25.4487 29.5028C26.2881 28.6634 27.6454 28.6634 28.4848 29.5028L34.5212 35.5393C36.8608 37.8789 40.647 37.8789 42.9687 35.5393L52.1306 26.3774C56.8276 21.6804 56.6669 14.1438 51.6662 9.7682C49.5231 7.92869 46.8621 7 44.201 7C41.3078 7 38.4146 8.10728 36.2 10.304L18.9479 27.574C14.5366 31.9853 14.5366 39.1469 18.9479 43.5581L36.2179 60.8282C38.4324 63.0427 41.3257 64.1321 44.2189 64.1321C47.1121 64.1321 50.0053 63.0249 52.2199 60.8282C56.6311 56.4169 56.6311 49.2553 52.2199 44.844H52.202ZM40.4148 14.5188C42.5044 12.4293 45.8977 12.4293 47.9872 14.5188C50.0767 16.6083 50.0767 20.0016 47.9872 22.0912L40.2184 29.86C39.3968 30.6815 38.0395 30.6815 37.218 29.86L32.646 25.288C31.8245 24.4665 31.8245 23.1092 32.646 22.2876L40.4148 14.5188ZM40.4148 56.6312L32.646 48.8624C31.8245 48.0408 31.8245 46.6835 32.646 45.862L37.218 41.29C38.0395 40.4685 39.3968 40.4685 40.2184 41.29L47.9872 49.0588C50.0767 51.1484 50.0767 54.5417 47.9872 56.6312C45.8977 58.7208 42.5044 58.7208 40.4148 56.6312Z" fill="url(#paint1_linear_12_20)"/>
</g>
<defs>
<linearGradient id="paint0_linear_12_20" x1="72" y1="0" x2="0" y2="72" gradientUnits="userSpaceOnUse">
<stop stop-color="#1A1E1F"/>
<stop offset="1" stop-color="#2B353E"/>
</linearGradient>
<linearGradient id="paint1_linear_12_20" x1="16.4654" y1="40.9685" x2="58.56" y2="32.7889" gradientUnits="userSpaceOnUse">
<stop stop-color="#333EFF"/>
<stop offset="1" stop-color="#5BCAFF"/>
</linearGradient>
<clipPath id="clip0_12_20">
<rect width="57.15" height="57.15" fill="white" transform="translate(7 7)"/>
</clipPath>
</defs>
</svg>
